<?xml version="1.0" encoding="utf-8"?>
<svg version="1.1" xmlns:xlink="http://www.w3.org/1999/xlink" width="18px" height="18px" xmlns="http://www.w3.org/2000/svg">
  <g transform="matrix(1 0 0 1 -1110 -6 )">
    <path d="M 1119 7  C 1123.48 7  1127 10.52  1127 15  C 1127 19.48  1123.48 23  1119 23  C 1114.52 23  1111 19.48  1111 15  C 1111 10.52  1114.52 7  1119 7  Z " fill-rule="nonzero" fill="#ffffff" stroke="none" fill-opacity="0" />
    <path d="M 1119 7  C 1123.48 7  1127 10.52  1127 15  C 1127 19.48  1123.48 23  1119 23  C 1114.52 23  1111 19.48  1111 15  C 1111 10.52  1114.52 7  1119 7  Z " stroke-width="2" stroke="#02a7f0" fill="none" />
  </g>
</svg>