<svg t="1688468852759" class="icon" viewBox="0 0 1025 1024" version="1.1" xmlns="http://www.w3.org/2000/svg" p-id="1901" width="200" height="200"><path d="M128.298667 768.554667a34.389333 34.389333 0 0 1-46.72-11.264c-5.077333-7.850667-10.112-16.298667-15.189334-24.192a484.394667 484.394667 0 0 1 15.786667-512 34.688 34.688 0 0 1 48.341333-10.112c16.341333 10.666667 20.821333 32.64 10.154667 48.938666a414.72 414.72 0 0 0-13.525333 438.314667c4.522667 6.741333 8.448 14.08 12.970666 20.821333A35.370667 35.370667 0 0 1 129.962667 768c-0.554667-0.554667-1.109333 0-1.706667 0.554667z m780.373333-451.242667c-0.554667 0.597333-1.152 0.597333-1.706667 1.152a34.986667 34.986667 0 0 1-46.677333-15.189333v-0.554667a158.464 158.464 0 0 0-11.818667-21.418667 414.421333 414.421333 0 0 0-385.962666-207.616 35.2 35.2 0 0 1-37.12-33.194666 34.858667 34.858667 0 0 1 33.152-37.12 484.437333 484.437333 0 0 1 451.242666 242.517333c5.077333 8.405333 9.557333 16.853333 13.525334 25.301333 7.296 17.450667 1.706667 37.12-14.634667 46.122667zM730.88 910.933333a485.248 485.248 0 0 1-286.378667 63.018667 35.669333 35.669333 0 0 1-32.085333-38.229333 35.669333 35.669333 0 0 1 38.272-32.085334c85.504 7.893333 169.898667-11.264 244.736-54.016a414.165333 414.165333 0 0 0 167.68-181.162666 34.901333 34.901333 0 0 1 46.677333-16.298667c17.450667 8.405333 24.746667 29.226667 16.298667 46.677333a480.896 480.896 0 0 1-195.2 212.096zM164.266667 111.957333a105.642667 105.642667 0 0 0 105.813333 105.813334 105.642667 105.642667 0 0 0 105.770667-105.813334A105.642667 105.642667 0 0 0 270.037333 6.186667a106.026667 106.026667 0 0 0-105.728 105.813333zM163.157333 863.104a105.642667 105.642667 0 0 0 105.813334 105.770667 105.642667 105.642667 0 0 0 105.728-105.813334 105.642667 105.642667 0 0 0-105.770667-105.770666 105.642667 105.642667 0 0 0-105.770667 105.813333zM812.458667 488.362667a105.173333 105.173333 0 0 0 105.770666 105.216 105.514667 105.514667 0 1 0 0-210.986667 105.642667 105.642667 0 0 0-105.813333 105.813333z" fill="#ffffff" p-id="1902"></path><path d="M423.082667 482.176L265.557333 403.413333h-0.554666a49.066667 49.066667 0 0 0-20.821334-5.077333 35.413333 35.413333 0 0 0-23.04 8.448 30.72 30.72 0 0 0-9.045333 21.376v211.541333c0 9.002667 3.413333 18.602667 10.154667 27.605334 6.741333 8.405333 15.744 16.298667 25.301333 20.778666l157.568 78.805334h0.554667c7.296 3.370667 14.08 5.034667 20.821333 5.034666a35.413333 35.413333 0 0 0 23.04-8.405333 30.72 30.72 0 0 0 9.002667-21.418667v-211.541333c0-8.96-3.925333-18.56-10.112-27.562667a61.013333 61.013333 0 0 0-25.344-20.821333z m333.098666-75.392a34.346667 34.346667 0 0 0-23.04-8.448c-6.784 0-14.08 1.706667-20.821333 5.077333L554.197333 482.133333a68.992 68.992 0 0 0-25.301333 20.821334 46.421333 46.421333 0 0 0-10.154667 27.562666v211.541334c0 8.448 3.413333 15.786667 9.002667 21.418666 5.632 5.589333 14.08 8.405333 23.04 8.405334 7.338667 0 14.677333-1.706667 20.864-5.034667l156.970667-78.805333c9.557333-4.48 18.56-11.776 25.301333-20.778667 6.784-9.002667 10.154667-18.602667 10.154667-27.605333l0.554666-211.541334a27.989333 27.989333 0 0 0-8.448-21.333333z m-56.277333-68.650667c14.08-6.741333 21.973333-17.450667 21.973333-29.226666 0-11.818667-7.893333-22.528-21.973333-28.714667l-174.933333-82.688a88.874667 88.874667 0 0 0-34.346667-6.784c-13.525333 0-26.453333 2.816-36.010667 7.338667l-176.64 86.058666c-14.08 6.784-21.973333 17.493333-21.973333 29.269334 0 11.818667 7.893333 22.528 21.376 28.714666l174.976 82.688c6.741333 3.413333 14.634667 5.077333 23.637333 6.186667l-0.554666 0.554667h11.264c13.482667 0 25.856-2.816 36.010666-7.296l177.194667-86.101334z" fill="#ffffff" p-id="1903"></path></svg>