<?xml version="1.0" encoding="utf-8"?>
<svg version="1.1" xmlns:xlink="http://www.w3.org/1999/xlink" width="10px" height="10px" xmlns="http://www.w3.org/2000/svg">
  <g transform="matrix(1 0 0 1 -220 -479 )">
    <path d="M 225 480  C 227.24 480  229 481.76  229 484  C 229 486.24  227.24 488  225 488  C 222.76 488  221 486.24  221 484  C 221 481.76  222.76 480  225 480  Z " fill-rule="nonzero" fill="#ffffff" stroke="none" />
    <path d="M 225 480  C 227.24 480  229 481.76  229 484  C 229 486.24  227.24 488  225 488  C 222.76 488  221 486.24  221 484  C 221 481.76  222.76 480  225 480  Z " stroke-width="2" stroke="#61a5e8" fill="none" />
  </g>
</svg>