<?xml version="1.0" encoding="utf-8"?>
<svg version="1.1" xmlns:xlink="http://www.w3.org/1999/xlink" width="15px" height="15px" xmlns="http://www.w3.org/2000/svg">
  <g transform="matrix(1 0 0 1 -1216 -837 )">
    <path d="M 1223.5 837  C 1227.7 837  1231 840.3  1231 844.5  C 1231 848.7  1227.7 852  1223.5 852  C 1219.3 852  1216 848.7  1216 844.5  C 1216 840.3  1219.3 837  1223.5 837  Z " fill-rule="nonzero" fill="#ffffff" stroke="none" />
    <path d="M 1223.5 837.5  C 1227.42 837.5  1230.5 840.58  1230.5 844.5  C 1230.5 848.42  1227.42 851.5  1223.5 851.5  C 1219.58 851.5  1216.5 848.42  1216.5 844.5  C 1216.5 840.58  1219.58 837.5  1223.5 837.5  Z " stroke-width="1" stroke="#0099ff" fill="none" />
  </g>
</svg>