<?xml version="1.0" encoding="utf-8"?>
<svg version="1.1" xmlns:xlink="http://www.w3.org/1999/xlink" width="11px" height="11px" xmlns="http://www.w3.org/2000/svg">
  <g transform="matrix(1 0 0 1 -202 -938 )">
    <path d="M 207.5 939  C 210.02 939  212 940.98  212 943.5  C 212 946.02  210.02 948  207.5 948  C 204.98 948  203 946.02  203 943.5  C 203 940.98  204.98 939  207.5 939  Z " fill-rule="nonzero" fill="#ffffff" stroke="none" />
    <path d="M 207.5 939  C 210.02 939  212 940.98  212 943.5  C 212 946.02  210.02 948  207.5 948  C 204.98 948  203 946.02  203 943.5  C 203 940.98  204.98 939  207.5 939  Z " stroke-width="2" stroke="#fe7606" fill="none" />
  </g>
</svg>