<?xml version="1.0" encoding="utf-8"?>
<svg version="1.1" xmlns:xlink="http://www.w3.org/1999/xlink" width="126px" height="42px" preserveAspectRatio="xMinYMid meet" viewBox="454 387  126 40" xmlns="http://www.w3.org/2000/svg">
  <g transform="matrix(-0.77714596145697 0.629320391049839 -0.62932039104984 -0.777145961456972 1174.91786123054 397.939764140221 )">
    <path d="M 0 290  L 46.6027397260274 230.41095890411  L 91.9109589041096 158.904109589041  L 137.219178082192 131.095890410959  L 182.943177208475 94  L 227.835616438356 77.4657534246575  L 273.143835616438 47.6712328767123  L 319.181736775126 0  L 362.465753424658 39.7260273972603  L 409.068493150685 97.3287671232877  L 454.376712328767 170.821917808219  L 499.684931506849 164.86301369863  L 544.993150684931 246.301369863014  L 590.301369863014 146.986301369863  L 635.609589041096 182.739726027397  L 680.917808219178 119.178082191781  L 727.520547945206 129.109589041096  L 770.239726027397 101.301369863014  L 816.842465753425 75.4794520547945  L 863.445205479452 85.4109589041096  L 907.458904109589 97.3287671232877  L 954.061643835616 57.6027397260274  L 998.075342465753 156.917808219178  L 1044.67808219178 107.260273972603  L 1088.69178082192 77.4657534246575  L 1134 39.7260273972603  " stroke-width="3" stroke="#61a5e8" fill="none" transform="matrix(1 0 0 1 71 263 )" />
  </g>
</svg>