<?xml version="1.0" encoding="utf-8"?>
<svg version="1.1" xmlns:xlink="http://www.w3.org/1999/xlink" width="14px" height="22px" xmlns="http://www.w3.org/2000/svg">
  <g transform="matrix(1 0 0 1 -157 -411 )">
    <path d="M 164 412  C 167.36 412  170 416.4  170 422  C 170 427.6  167.36 432  164 432  C 160.64 432  158 427.6  158 422  C 158 416.4  160.64 412  164 412  Z " fill-rule="nonzero" fill="#ffffff" stroke="none" />
    <path d="M 164 412  C 167.36 412  170 416.4  170 422  C 170 427.6  167.36 432  164 432  C 160.64 432  158 427.6  158 422  C 158 416.4  160.64 412  164 412  Z " stroke-width="2" stroke="#61a5e8" fill="none" />
  </g>
</svg>