<?xml version="1.0" encoding="utf-8"?>
<svg version="1.1" xmlns:xlink="http://www.w3.org/1999/xlink" width="11px" height="11px" xmlns="http://www.w3.org/2000/svg">
  <g transform="matrix(1 0 0 1 -860 -4474 )">
    <path d="M 865.5 4475  C 868.02 4475  870 4476.98  870 4479.5  C 870 4482.02  868.02 4484  865.5 4484  C 862.98 4484  861 4482.02  861 4479.5  C 861 4476.98  862.98 4475  865.5 4475  Z " fill-rule="nonzero" fill="#ffffff" stroke="none" />
    <path d="M 865.5 4475  C 868.02 4475  870 4476.98  870 4479.5  C 870 4482.02  868.02 4484  865.5 4484  C 862.98 4484  861 4482.02  861 4479.5  C 861 4476.98  862.98 4475  865.5 4475  Z " stroke-width="2" stroke="#61a5e8" fill="none" />
  </g>
</svg>