<?xml version="1.0" encoding="utf-8"?>
<svg version="1.1" xmlns:xlink="http://www.w3.org/1999/xlink" width="19px" height="18px" preserveAspectRatio="xMinYMid meet" viewBox="201 784  19 16" xmlns="http://www.w3.org/2000/svg">
  <path d="M 213 792.5  L 77.5 792.5  A 0.5 0.5 0 0 1 77.5 792 " stroke-width="1" stroke="#e3935d" fill="none" />
  <path d="M 211 789.5  A 3 3 0 0 0 208 792.5 A 3 3 0 0 0 211 795.5 A 3 3 0 0 0 214 792.5 A 3 3 0 0 0 211 789.5 Z M 79.2146018366026 789.5  A 3 3 0 0 0 76.2146018366026 792.5 A 3 3 0 0 0 79.2146018366026 795.5 A 3 3 0 0 0 82.2146018366026 792.5 A 3 3 0 0 0 79.2146018366026 789.5 Z " fill-rule="nonzero" fill="#e3935d" stroke="none" />
</svg>