<?xml version="1.0" encoding="utf-8"?>
<svg version="1.1" xmlns:xlink="http://www.w3.org/1999/xlink" width="10px" height="6.5px" preserveAspectRatio="xMinYMid meet" viewBox="423 726.5  10 4.5" xmlns="http://www.w3.org/2000/svg">
  <path d="M 527 727.5  L 428.5 727.5  A 0.5 0.5 0 0 1 428.5 727 " stroke-width="1" stroke="#0099ff" fill="none" />
  <path d="M 525 724.5  A 3 3 0 0 0 522 727.5 A 3 3 0 0 0 525 730.5 A 3 3 0 0 0 528 727.5 A 3 3 0 0 0 525 724.5 Z M 430.214601836603 724.5  A 3 3 0 0 0 427.214601836603 727.5 A 3 3 0 0 0 430.214601836603 730.5 A 3 3 0 0 0 433.214601836603 727.5 A 3 3 0 0 0 430.214601836603 724.5 Z " fill-rule="nonzero" fill="#0099ff" stroke="none" />
</svg>