<?xml version="1.0" encoding="utf-8"?>
<svg version="1.1" xmlns:xlink="http://www.w3.org/1999/xlink" width="9px" height="10px" preserveAspectRatio="xMidYMin meet" viewBox="271.5 773  7 10" xmlns="http://www.w3.org/2000/svg">
  <path d="M 279.508210154447 778.389345384252  A 4.5 4.5 0 0 1 276 774 L 276 729.5  A 5 5 0 0 0 271 725 L 166.75 725  A 0.75 0.75 0 0 1 166.5 724.25 " stroke-width="1" stroke="#ff0000" fill="none" />
  <path d="M 277.717335886186 774.536492673496  A 3 3 0 0 0 274.717335886186 777.536492673496 A 3 3 0 0 0 277.717335886186 780.536492673496 A 3 3 0 0 0 280.717335886186 777.536492673496 A 3 3 0 0 0 277.717335886186 774.536492673496 Z M 167.821902754904 722  A 3 3 0 0 0 164.821902754904 725 A 3 3 0 0 0 167.821902754904 728 A 3 3 0 0 0 170.821902754904 725 A 3 3 0 0 0 167.821902754904 722 Z " fill-rule="nonzero" fill="#ff0000" stroke="none" />
</svg>