<?xml version="1.0" encoding="utf-8"?>
<svg version="1.1" xmlns:xlink="http://www.w3.org/1999/xlink" width="18px" height="19px" preserveAspectRatio="xMidYMin meet" viewBox="370 998  16 19" xmlns="http://www.w3.org/2000/svg">
  <path d="M 477 1006.5  L 378.5 1006.5  A 0.5 0.5 0 0 1 378.5 1006 " stroke-width="1" stroke="#7ecf51" fill="none" />
  <path d="M 475 1003.5  A 3 3 0 0 0 472 1006.5 A 3 3 0 0 0 475 1009.5 A 3 3 0 0 0 478 1006.5 A 3 3 0 0 0 475 1003.5 Z M 380.214601836603 1003.5  A 3 3 0 0 0 377.214601836603 1006.5 A 3 3 0 0 0 380.214601836603 1009.5 A 3 3 0 0 0 383.214601836603 1006.5 A 3 3 0 0 0 380.214601836603 1003.5 Z " fill-rule="nonzero" fill="#7ecf51" stroke="none" />
</svg>