<?xml version="1.0" encoding="utf-8"?>
<svg version="1.1" xmlns:xlink="http://www.w3.org/1999/xlink" width="19px" height="18px" preserveAspectRatio="xMinYMid meet" viewBox="158 878  19 16" xmlns="http://www.w3.org/2000/svg">
  <path d="M 170 886.5  L 69 886.5  " stroke-width="1" stroke="#eecb5f" fill="none" />
  <path d="M 168 883.5  A 3 3 0 0 0 165 886.5 A 3 3 0 0 0 168 889.5 A 3 3 0 0 0 171 886.5 A 3 3 0 0 0 168 883.5 Z M 71 883.5  A 3 3 0 0 0 68 886.5 A 3 3 0 0 0 71 889.5 A 3 3 0 0 0 74 886.5 A 3 3 0 0 0 71 883.5 Z " fill-rule="nonzero" fill="#eecb5f" stroke="none" />
</svg>