<?xml version="1.0" encoding="utf-8"?>
<svg version="1.1" xmlns:xlink="http://www.w3.org/1999/xlink" width="119.5px" height="10px" preserveAspectRatio="xMinYMid meet" viewBox="931 722.5  119.5 8" xmlns="http://www.w3.org/2000/svg">
  <path d="M 1049.50821015445 780.389345384252  A 4.5 4.5 0 0 1 1046 776 L 1046 731.5  A 5 5 0 0 0 1041 727 L 936.75 727  A 0.75 0.75 0 0 1 936.5 726.25 " stroke-width="1" stroke="#ff0000" fill="none" />
  <path d="M 1047.71733588619 776.536492673496  A 3 3 0 0 0 1044.71733588619 779.536492673496 A 3 3 0 0 0 1047.71733588619 782.536492673496 A 3 3 0 0 0 1050.71733588619 779.536492673496 A 3 3 0 0 0 1047.71733588619 776.536492673496 Z M 937.821902754904 724  A 3 3 0 0 0 934.821902754904 727 A 3 3 0 0 0 937.821902754904 730 A 3 3 0 0 0 940.821902754904 727 A 3 3 0 0 0 937.821902754904 724 Z " fill-rule="nonzero" fill="#ff0000" stroke="none" />
</svg>