<?xml version="1.0" encoding="utf-8"?>
<svg version="1.1" xmlns:xlink="http://www.w3.org/1999/xlink" width="18px" height="19px" preserveAspectRatio="xMidYMin meet" viewBox="839 786  16 19" xmlns="http://www.w3.org/2000/svg">
  <path d="M 983 794.5  L 847.5 794.5  A 0.5 0.5 0 0 1 847.5 794 " stroke-width="1" stroke="#e3935d" fill="none" />
  <path d="M 981 791.5  A 3 3 0 0 0 978 794.5 A 3 3 0 0 0 981 797.5 A 3 3 0 0 0 984 794.5 A 3 3 0 0 0 981 791.5 Z M 849.214601836603 791.5  A 3 3 0 0 0 846.214601836603 794.5 A 3 3 0 0 0 849.214601836603 797.5 A 3 3 0 0 0 852.214601836603 794.5 A 3 3 0 0 0 849.214601836603 791.5 Z " fill-rule="nonzero" fill="#e3935d" stroke="none" />
</svg>