<?xml version="1.0" encoding="utf-8"?>
<svg version="1.1" xmlns:xlink="http://www.w3.org/1999/xlink" width="18px" height="19px" preserveAspectRatio="xMidYMin meet" viewBox="1190 721  16 19" xmlns="http://www.w3.org/2000/svg">
  <path d="M 1297 729.5  L 1198.5 729.5  A 0.5 0.5 0 0 1 1198.5 729 " stroke-width="1" stroke="#0099ff" fill="none" />
  <path d="M 1295 726.5  A 3 3 0 0 0 1292 729.5 A 3 3 0 0 0 1295 732.5 A 3 3 0 0 0 1298 729.5 A 3 3 0 0 0 1295 726.5 Z M 1200.2146018366 726.5  A 3 3 0 0 0 1197.2146018366 729.5 A 3 3 0 0 0 1200.2146018366 732.5 A 3 3 0 0 0 1203.2146018366 729.5 A 3 3 0 0 0 1200.2146018366 726.5 Z " fill-rule="nonzero" fill="#0099ff" stroke="none" />
</svg>