<?xml version="1.0" encoding="utf-8"?>
<svg version="1.1" xmlns:xlink="http://www.w3.org/1999/xlink" width="108px" height="10px" preserveAspectRatio="xMinYMid meet" viewBox="837.5 884  108 8" xmlns="http://www.w3.org/2000/svg">
  <path d="M 940 888.5  L 839 888.5  " stroke-width="1" stroke="#eecb5f" fill="none" />
  <path d="M 938 885.5  A 3 3 0 0 0 935 888.5 A 3 3 0 0 0 938 891.5 A 3 3 0 0 0 941 888.5 A 3 3 0 0 0 938 885.5 Z M 841 885.5  A 3 3 0 0 0 838 888.5 A 3 3 0 0 0 841 891.5 A 3 3 0 0 0 844 888.5 A 3 3 0 0 0 841 885.5 Z " fill-rule="nonzero" fill="#eecb5f" stroke="none" />
</svg>