<?xml version="1.0" encoding="utf-8"?>
<svg version="1.1" xmlns:xlink="http://www.w3.org/1999/xlink" width="10px" height="6.5px" preserveAspectRatio="xMinYMid meet" viewBox="1143 1007.5  10 4.5" xmlns="http://www.w3.org/2000/svg">
  <path d="M 1247 1008.5  L 1148.5 1008.5  A 0.5 0.5 0 0 1 1148.5 1008 " stroke-width="1" stroke="#7ecf51" fill="none" />
  <path d="M 1245 1005.5  A 3 3 0 0 0 1242 1008.5 A 3 3 0 0 0 1245 1011.5 A 3 3 0 0 0 1248 1008.5 A 3 3 0 0 0 1245 1005.5 Z M 1150.2146018366 1005.5  A 3 3 0 0 0 1147.2146018366 1008.5 A 3 3 0 0 0 1150.2146018366 1011.5 A 3 3 0 0 0 1153.2146018366 1008.5 A 3 3 0 0 0 1150.2146018366 1005.5 Z " fill-rule="nonzero" fill="#7ecf51" stroke="none" />
</svg>