<?xml version="1.0" encoding="utf-8"?>
<svg version="1.1" xmlns:xlink="http://www.w3.org/1999/xlink" width="15px" height="15px" xmlns="http://www.w3.org/2000/svg">
  <g transform="matrix(1 0 0 1 -900 -409 )">
    <path d="M 907.5 410  C 911.14 410  914 412.86  914 416.5  C 914 420.14  911.14 423  907.5 423  C 903.86 423  901 420.14  901 416.5  C 901 412.86  903.86 410  907.5 410  Z " fill-rule="nonzero" fill="#ffffff" stroke="none" />
    <path d="M 907.5 410  C 911.14 410  914 412.86  914 416.5  C 914 420.14  911.14 423  907.5 423  C 903.86 423  901 420.14  901 416.5  C 901 412.86  903.86 410  907.5 410  Z " stroke-width="2" stroke="#ff7c14" fill="none" />
  </g>
</svg>