<?xml version="1.0" encoding="utf-8"?>
<svg version="1.1" xmlns:xlink="http://www.w3.org/1999/xlink" width="360px" height="94px" xmlns="http://www.w3.org/2000/svg">
  <defs>
    <mask fill="white" id="clip216">
      <path d="M 0 90.2096774193548  L 0 11.3709677419355  C 0 9.24838709677418  2.69387755102039 7.58064516129032  6.12244897959184 8  L 101.632653061224 8  L 151.836734693878 7.58064516129032  L 176.326530612245 0  L 198.367346938775 8  L 353.877551020408 8  C 357.30612244898 7.58064516129032  360 9.24838709677418  360 11.3709677419355  L 360 90.2096774193548  C 360 92.3322580645161  357.30612244898 94  353.877551020408 94  L 6.12244897959184 94  C 2.69387755102039 94  0 92.3322580645161  0 90.2096774193548  Z " fill-rule="evenodd" />
    </mask>
  </defs>
  <g transform="matrix(1 0 0 1 -398 -360 )">
    <path d="M 0 90.2096774193548  L 0 11.3709677419355  C 0 9.24838709677418  2.69387755102039 7.58064516129032  6.12244897959184 8  L 101.632653061224 8  L 151.836734693878 7.58064516129032  L 176.326530612245 0  L 198.367346938775 8  L 353.877551020408 8  C 357.30612244898 7.58064516129032  360 9.24838709677418  360 11.3709677419355  L 360 90.2096774193548  C 360 92.3322580645161  357.30612244898 94  353.877551020408 94  L 6.12244897959184 94  C 2.69387755102039 94  0 92.3322580645161  0 90.2096774193548  Z " fill-rule="nonzero" fill="#bee8fb" stroke="none" fill-opacity="0.294117647058824" transform="matrix(1 0 0 1 398 360 )" />
    <path d="M 0 90.2096774193548  L 0 11.3709677419355  C 0 9.24838709677418  2.69387755102039 7.58064516129032  6.12244897959184 8  L 101.632653061224 8  L 151.836734693878 7.58064516129032  L 176.326530612245 0  L 198.367346938775 8  L 353.877551020408 8  C 357.30612244898 7.58064516129032  360 9.24838709677418  360 11.3709677419355  L 360 90.2096774193548  C 360 92.3322580645161  357.30612244898 94  353.877551020408 94  L 6.12244897959184 94  C 2.69387755102039 94  0 92.3322580645161  0 90.2096774193548  Z " stroke-width="2" stroke="#797979" fill="none" transform="matrix(1 0 0 1 398 360 )" mask="url(#clip216)" />
  </g>
</svg>