<svg t="1688470050250" class="icon" viewBox="0 0 1024 1024" version="1.1" xmlns="http://www.w3.org/2000/svg" p-id="8082" width="200" height="200"><path d="M32 96h960c17.92 0 32-14.08 32-32s-14.08-32-32-32H32C14.08 32 0 46.08 0 64s14.08 32 32 32zM288 544h704c17.92 0 32-14.08 32-32s-14.08-32-32-32h-704c-17.92 0-32 14.08-32 32s14.08 32 32 32zM32 992h960c17.92 0 32-14.08 32-32s-14.08-32-32-32H32c-17.92 0-32 14.08-32 32s14.08 32 32 32zM160 672c8.32 0 16.64-3.2 22.4-9.6 12.8-12.8 12.8-32.64 0-45.44L77.44 512l105.6-105.6c12.8-12.8 12.8-32.64 0-45.44s-32.64-12.8-45.44 0l-128 128c-12.8 12.8-12.8 32.64 0 45.44l128 128c5.76 6.4 14.08 9.6 22.4 9.6z" fill="#ffffff" p-id="8083"></path></svg>