<?xml version="1.0" encoding="utf-8"?>
<svg version="1.1" xmlns:xlink="http://www.w3.org/1999/xlink" width="12px" height="12px" xmlns="http://www.w3.org/2000/svg">
  <g transform="matrix(1 0 0 1 -421 -2890 )">
    <path d="M 427 2891  C 429.8 2891  432 2893.2  432 2896  C 432 2898.8  429.8 2901  427 2901  C 424.2 2901  422 2898.8  422 2896  C 422 2893.2  424.2 2891  427 2891  Z " fill-rule="nonzero" fill="#ffffff" stroke="none" />
    <path d="M 427 2891  C 429.8 2891  432 2893.2  432 2896  C 432 2898.8  429.8 2901  427 2901  C 424.2 2901  422 2898.8  422 2896  C 422 2893.2  424.2 2891  427 2891  Z " stroke-width="2" stroke="#cccccc" fill="none" />
  </g>
</svg>