<?xml version="1.0" encoding="utf-8"?>
<svg version="1.1" xmlns:xlink="http://www.w3.org/1999/xlink" width="948px" height="125px" xmlns="http://www.w3.org/2000/svg">
  <defs>
    <mask fill="white" id="clip221">
      <path d="M 27.6560196560197 6.60919542201693  L 27.6560196560197 0  L 938 0  L 938 115  L 28 115  L 28 12.7777778060177  L 0 9.25287356321839  L 27.6560196560197 6.60919542201693  Z " fill-rule="evenodd" />
    </mask>
    <filter x="-6px" y="0px" width="948px" height="125px" filterUnits="userSpaceOnUse" id="filter222">
      <feOffset dx="5" dy="5" in="SourceAlpha" result="shadowOffsetInner" />
      <feGaussianBlur stdDeviation="2.5" in="shadowOffsetInner" result="shadowGaussian" />
      <feComposite in2="shadowGaussian" operator="atop" in="SourceAlpha" result="shadowComposite" />
      <feColorMatrix type="matrix" values="0 0 0 0 0  0 0 0 0 0  0 0 0 0 0  0 0 0 0.349019607843137 0  " in="shadowComposite" />
    </filter>
    <g id="widget223">
      <path d="M 27.6560196560197 6.60919542201693  L 27.6560196560197 0  L 938 0  L 938 115  L 28 115  L 28 12.7777778060177  L 0 9.25287356321839  L 27.6560196560197 6.60919542201693  Z " fill-rule="nonzero" fill="#ffffff" stroke="none" transform="matrix(1 0 0 1 -6 0 )" />
      <path d="M 27.6560196560197 6.60919542201693  L 27.6560196560197 0  L 938 0  L 938 115  L 28 115  L 28 12.7777778060177  L 0 9.25287356321839  L 27.6560196560197 6.60919542201693  Z " stroke-width="2" stroke="#0099ff" fill="none" transform="matrix(1 0 0 1 -6 0 )" mask="url(#clip221)" />
    </g>
  </defs>
  <g transform="matrix(1 0 0 1 6 0 )">
    <use xlink:href="#widget223" filter="url(#filter222)" />
    <use xlink:href="#widget223" />
  </g>
</svg>